<svg viewBox="0 0 16 16" fill="currentColor" xmlns="http://www.w3.org/2000/svg">
    <path d="M15.7996 7.55758C16.0896 7.23859 16.0616 6.74968 15.737 6.46585L8.58642 0.20903C8.26186 -0.0748021 7.7415 -0.0688564 7.42377 0.222434L0.248846 6.79944C-0.0688875 7.09073 -0.0844821 7.57901 0.214319 7.8896L0.394204 8.07695C0.69264 8.38753 1.17503 8.42456 1.47096 8.1594L2.00717 7.67921V14.7094C2.00717 15.1407 2.35667 15.4899 2.78769 15.4899H5.58449C6.01551 15.4899 6.365 15.1407 6.365 14.7094V9.7911H9.93236V14.7094C9.92615 15.1404 10.2345 15.4896 10.6656 15.4896H13.6295C14.0605 15.4896 14.41 15.1404 14.41 14.7091V7.7782C14.41 7.7782 14.5581 7.90796 14.7408 8.06855C14.9232 8.22882 15.3063 8.10031 15.5963 7.78101L15.7996 7.55758Z" fill="currentColor"/>
</svg>
