<svg viewBox="0 0 323 299" fill="currentColor" xmlns="http://www.w3.org/2000/svg">
    <path d="M161.2 0.00712568C247.117 -0.781927 322.116 64.0519 322.4 148.744C322.683 230.41 253.213 298.664 161.625 298.795C67.7694 299.058 0.141978 228.832 0.000201823 149.533C-0.141575 65.4985 74.4329 -0.781927 161.2 0.00712568ZM214.933 191.747C216.635 192.799 216.918 193.194 217.344 193.325C243.856 198.717 269.801 197.139 295.604 189.248C299.29 188.065 300.708 185.698 301.417 182.541C307.797 158.344 307.372 134.409 299.716 110.606C298.581 107.055 297.022 105.609 292.769 106.529C274.763 110.606 256.332 111.395 237.901 109.685C232.939 109.291 230.812 110.474 228.969 114.551C223.865 126.65 217.06 137.828 208.27 148.086C207.419 149.138 206.994 150.585 206.001 152.426C218.052 152.294 227.126 156.108 230.103 166.629C233.364 178.465 227.693 186.75 214.933 191.747ZM17.1552 137.828C16.8716 140.853 16.3045 143.22 16.4463 145.456C17.1552 155.056 18.2894 164.656 18.9982 174.256C19.2818 179.122 22.1173 181.358 26.796 183.067C62.3819 195.561 97.826 195.561 133.27 182.804C137.098 181.358 140.784 179.517 145.179 177.675C143.62 176.097 142.769 175.045 141.777 174.256C131.143 165.708 122.353 155.845 114.414 145.061C110.302 139.538 110.302 139.538 102.93 141.116C84.0737 145.061 65.0756 145.719 45.9358 143.089C36.7203 141.774 27.5048 139.801 17.1552 137.828ZM216.918 273.282C215.217 271.967 214.65 271.441 214.083 271.178C193.1 264.734 181.474 250.794 178.497 230.937C177.079 221.073 177.504 210.947 177.646 200.821C177.646 198.059 177.221 196.35 174.527 195.035C169.99 192.799 165.595 188.854 160.917 188.459C156.663 188.196 151.985 191.878 147.59 193.72C147.164 193.851 146.739 194.114 146.314 194.246C143.336 195.298 142.911 197.139 142.911 199.9C143.053 208.449 143.62 216.997 142.344 225.413C139.083 246.586 127.457 261.973 104.064 268.022C102.646 268.417 101.37 269.206 98.8184 270.389C138.232 286.828 176.795 287.748 216.918 273.282ZM27.9302 199.9C28.7808 202.531 29.0644 203.846 29.6315 205.029C37.1456 220.416 47.9207 233.304 60.2552 245.666C68.1947 253.688 77.4102 255.66 88.1852 255.134C109.168 254.082 121.786 244.35 125.756 225.676C127.315 218.049 128.733 210.29 125.756 201.873C93.2891 210.027 61.2476 209.632 27.9302 199.9ZM291.493 206.607C274.196 210.684 258.317 211.999 242.296 211.605C225.992 211.21 210.396 207.922 193.95 203.451C193.1 215.024 192.674 225.282 196.502 235.539C200.756 246.718 208.553 254.477 221.03 256.975C227.551 258.29 234.64 258.29 241.304 258.159C244.281 258.027 247.684 256.712 250.236 255.003C266.54 243.43 279.3 228.832 289.224 212.262C289.933 210.816 290.358 209.369 291.493 206.607ZM198.629 84.0412C222.873 97.3236 275.188 98.2442 290.358 90.0906C279.867 66.4191 250.945 39.3282 225.567 29.9911C221.88 39.0652 218.62 48.4023 214.224 57.3449C209.688 66.2875 204.017 74.8356 198.629 84.0412ZM90.0283 33.6734C54.1588 48.9284 21.9756 94.6934 20.9831 121.784C34.8772 127.571 58.2703 130.727 65.0756 127.834C64.2249 127.308 63.5161 126.65 62.8072 126.124C53.3082 119.023 51.0397 108.765 56.8526 99.9538C62.949 90.7482 74.2911 88.118 85.3496 93.1153C86.9092 93.7729 88.4687 94.4304 91.3043 95.614C86.4839 74.4411 86.7674 54.5833 90.0283 33.6734ZM127.883 134.672C128.166 135.593 128.166 136.382 128.45 136.776C136.531 148.218 146.597 158.081 157.939 166.76C160.775 168.996 162.901 167.944 165.453 166.234C186.436 151.9 202.032 133.62 212.665 111.527C213.374 109.948 213.799 108.37 214.366 106.398C206.71 103.768 199.338 101.795 192.391 98.7702C187.854 96.7976 185.302 97.7181 182.041 100.743C167.296 114.42 150.425 125.072 131.285 132.568C130.009 133.094 129.017 134.015 127.883 134.672ZM170.983 88.907C144.329 73.2575 124.622 52.8736 109.735 28.0185C100.236 59.9751 103.213 90.4852 118.667 120.732C138.516 113.499 155.529 103.636 170.983 88.907ZM198.204 51.0325C203.166 44.1941 205.718 36.5666 207.986 28.8075C209.688 22.8897 209.546 22.6266 203.308 20.917C181.049 14.6046 158.365 13.5525 135.539 17.1033C132.278 17.6293 129.017 18.8129 125.047 19.865C133.695 35.7775 144.187 49.0599 158.365 59.8436C154.253 49.9805 153.686 40.7748 162.901 33.4104C169.565 28.0185 177.646 27.3609 185.444 30.6487C194.659 34.4624 198.062 41.8269 198.204 51.0325ZM191.966 175.571C197.353 179.517 203.308 181.358 209.688 181.489C214.083 181.621 217.202 179.122 218.903 175.308C220.463 171.626 219.187 168.47 216.209 165.708C213.09 162.815 209.404 162.683 205.718 164.262C200.189 166.76 195.51 170.311 191.966 175.571ZM180.482 65.104C183.884 58.7915 188.138 53.1367 185.869 45.9037C184.31 40.7748 178.639 38.1447 173.818 39.7228C168.147 41.5639 165.453 46.5612 167.864 51.6901C170.416 57.2134 174.385 61.6847 180.482 65.104ZM90.4536 119.417C89.0358 112.973 86.7674 107.844 82.3723 103.768C79.1115 100.874 74.8582 100.217 71.3138 101.926C67.7694 103.636 65.5009 106.266 65.7845 110.343C65.9263 114.551 68.1947 117.313 72.448 118.628C77.9773 120.338 83.7901 120.601 90.4536 119.417Z" fill="currentColor" fill-opacity="0.08"/>
</svg>
