<svg viewBox="0 0 19 19" fill="currentColor" xmlns="http://www.w3.org/2000/svg">
    <g clip-path="url(#clip0_302_2)">
        <path d="M1.60346 4.3024C1.59655 4.33993 1.59266 4.37797 1.59141 4.41601V5.1974C1.59241 5.51941 1.7924 5.80729 2.09408 5.9204V7.07013C2.09546 7.45504 2.39815 7.77141 2.78256 7.78962V14.4317C2.39815 14.4501 2.09546 14.7664 2.09408 15.1512V16.2976C1.79177 16.4137 1.59191 16.7037 1.59141 17.0274V17.7917C1.59141 17.9342 1.70716 18.0498 1.84965 18.0498H19.2615C19.404 18.0498 19.5196 17.9342 19.5196 17.7917V17.0274C19.5191 16.7036 19.3193 16.4136 19.0171 16.2976V15.1445C19.0157 14.7595 18.7129 14.4432 18.3286 14.425V7.78962C18.7129 7.77141 19.0157 7.45504 19.0171 7.07013V5.9204C19.3186 5.80729 19.5186 5.51941 19.5196 5.1974V4.42116C19.5185 4.38312 19.5145 4.34508 19.5076 4.30754C19.6374 4.36504 19.7892 4.30654 19.8467 4.17673C19.9042 4.04704 19.8457 3.89526 19.716 3.83763L10.6744 -0.914564C10.5989 -0.954362 10.5088 -0.954362 10.4333 -0.914564L1.39179 3.83249C1.26562 3.89915 1.21729 4.0552 1.2837 4.18137C1.34446 4.29662 1.48155 4.3486 1.60346 4.3024ZM2.61044 6.36784V5.97024H5.58808V6.36445L2.61044 6.36784ZM9.24052 7.79138V14.4317C8.8561 14.4501 8.55342 14.7664 8.55204 15.1512V16.2494H6.10093V15.1512C6.09955 14.7664 5.79686 14.4501 5.41245 14.4317V7.78962C5.79686 7.77141 6.09955 7.45504 6.10093 7.07013V5.97024H8.54852V7.0685C8.54915 7.45404 8.85209 7.77116 9.23713 7.78962L9.24052 7.79138ZM9.0684 6.36784V5.97024H12.0462V6.36445L9.0684 6.36784ZM15.6986 7.79138V14.4317C15.3142 14.4501 15.0114 14.7664 15.01 15.1512V16.2494H12.559V15.1512C12.5576 14.7664 12.2548 14.4501 11.8705 14.4317V7.78962C12.2548 7.77141 12.5576 7.45504 12.559 7.07013V5.97024H15.0066V7.0685C15.0071 7.45404 15.31 7.77116 15.6951 7.78962L15.6986 7.79138ZM15.5265 6.36784V5.97024H18.5041V6.36445L15.5265 6.36784ZM18.5041 15.8553V16.2494H15.523V15.8553H18.5041ZM12.0462 15.8553V16.2494H9.06501V15.8553H12.0462ZM9.49525 7.27841H9.27153C9.15741 7.27841 9.06501 7.186 9.06501 7.07189V6.8842H12.0427V7.07189C12.0427 7.186 11.9502 7.27841 11.8361 7.27841H9.49525ZM11.3559 7.79477V14.4284H9.75349V7.79477H11.3559ZM9.49525 14.9447H11.8361C11.9502 14.9447 12.0427 15.0371 12.0427 15.1512V15.3389H9.06501V15.1512C9.06501 15.0371 9.15741 14.9447 9.27153 14.9447H9.49525ZM5.58469 15.8553V16.2494H2.60693V15.8553H5.58469ZM2.60693 7.07703V6.8842H5.58469V7.07189C5.58469 7.186 5.49229 7.27841 5.37805 7.27841H2.8083C2.69556 7.27564 2.60592 7.18287 2.60693 7.07013V7.07703ZM4.89621 7.79991V14.4284H3.29541V7.79477L4.89621 7.79991ZM2.60693 15.1565C2.60693 15.0423 2.69933 14.9499 2.81345 14.9499H5.37805C5.49229 14.9499 5.58469 15.0423 5.58469 15.1565V15.3441H2.60693V15.1565ZM19.0033 17.0378V17.5437H2.10438V17.0378C2.10438 16.8904 2.22377 16.7709 2.37116 16.7709H18.7365C18.8818 16.7709 19.0005 16.8873 19.0033 17.0325V17.0378ZM18.5007 15.1565V15.3441H15.523V15.1565C15.523 15.0423 15.6154 14.9499 15.7295 14.9499H18.2994C18.4095 14.9526 18.498 15.0411 18.5007 15.1512V15.1565ZM16.2114 14.4335V7.79477H17.8139V14.4284L16.2114 14.4335ZM18.5007 7.07703C18.5007 7.19115 18.4083 7.28355 18.2942 7.28355H15.7312C15.6171 7.28355 15.5247 7.19115 15.5247 7.07703V6.8842H18.5024L18.5007 7.07703ZM10.5538 -0.398204L18.2425 3.64317H2.86517L10.5538 -0.398204ZM2.10438 4.42116C2.10438 4.27867 2.22 4.16304 2.36249 4.16304H18.7452C18.8877 4.16304 19.0033 4.27867 19.0033 4.42116V5.20267C19.0033 5.34516 18.8877 5.46079 18.7452 5.46079H2.36249C2.22 5.46079 2.10438 5.34516 2.10438 5.20267V4.42116Z" fill="currentColor"/>
    </g>
</svg>
