<svg viewBox="0 0 67 76" fill="none" xmlns="http://www.w3.org/2000/svg">
<path d="M9.93781 30.6432C11.6292 26.2763 13.6932 22.1596 16.7004 18.5608C21.8996 12.3354 28.5192 9.46142 36.5773 10.0828C38.6365 10.2322 40.5588 10.0414 42.2176 8.55418C43.2098 7.66078 44.3199 7.94422 44.9825 9.12149C45.4868 10.0199 45.8732 10.9633 46.357 11.8718C47.2155 13.5131 48.4193 14.8961 49.8872 16.0098C57.3642 21.5742 59.8344 29.146 57.9439 38.1416C56.0035 47.3779 51.6237 55.4547 44.9811 62.1582C40.4664 66.7119 34.9973 68.9713 28.5454 68.1866C26.9603 67.9958 25.4 67.5384 23.8434 67.1682C22.7583 66.9107 21.6955 66.5405 20.6005 66.2624C13.1486 64.3894 8.99014 59.4647 7.60756 51.9963C6.81403 47.6759 7.14022 43.3669 7.96468 39.0937C8.51076 36.2552 9.26492 33.4548 9.93781 30.6432ZM42.8203 10.8808C42.7292 10.8491 42.6533 10.8226 42.5675 10.7755C40.6987 12.0347 38.6086 12.2187 36.4529 12.0529C32.7212 11.7684 29.1089 12.2653 25.7064 13.9196C21.006 16.1714 17.6818 19.8491 15.1235 24.3099C12.0408 29.6893 10.3603 35.54 9.52032 41.6663C8.92895 46.0034 8.89296 50.3102 10.315 54.4882C12.1057 59.7583 15.6068 63.1978 21.1161 64.3425C21.4358 64.4022 21.967 64.2947 22.1338 64.0603C24.0515 61.3898 25.2806 58.4966 25.2655 55.1185C25.232 49.7893 26.2388 44.6505 28.9024 39.9855C30.5387 37.0965 32.4019 34.3382 34.3053 31.6111C37.5225 27.0185 40.4869 22.3206 41.7399 16.7684C42.1849 14.8067 42.462 12.8382 42.8203 10.8808ZM23.9043 65.0384C24.1517 65.159 24.308 65.2478 24.475 65.306C30.6269 67.2941 36.3652 66.6083 41.6142 62.5858C44.6876 60.2146 47.089 57.2308 49.1286 53.9661C52.3089 48.8443 55.0246 43.4919 56.1477 37.4815C57.6309 29.411 55.5596 22.6492 48.8464 17.6779C47.333 16.5484 46.0577 15.1749 45.0564 13.5527C44.9027 13.3098 44.7489 13.0669 44.5308 12.7156C44.4595 13.0178 44.4061 13.1713 44.3883 13.3199C43.7506 17.6925 42.5653 21.926 40.3029 25.7326C38.3651 28.9984 36.2657 32.1907 34.0205 35.2634C29.5455 41.4141 27.0157 48.1391 27.2037 55.8108C27.2195 56.694 27.047 57.5804 26.8744 58.4667C26.4021 60.8491 25.2831 62.9374 23.9043 65.0384Z" fill="white"/>
<path d="M18.3965 34.4159C18.6814 33.2072 18.9358 31.988 19.2358 30.7846C20.3406 26.4887 22.7275 23.1557 26.5474 20.8897C27.257 20.4657 27.866 20.5746 28.1629 21.091C28.4695 21.628 28.2316 22.1646 27.5167 22.604C23.794 24.835 21.7072 28.1866 20.8782 32.4237C20.1765 36.0512 18.7423 39.3375 16.3532 42.188C16.1142 42.4833 15.8501 42.7527 15.561 42.9962C15.0755 43.4122 14.5559 43.4377 14.126 42.961C13.7212 42.5102 13.7753 42.0128 14.2151 41.5809C15.7418 40.0821 16.8155 38.2706 17.6319 36.3178C17.8966 35.7045 18.0756 35.0441 18.3001 34.3995C18.3358 34.3947 18.3662 34.4053 18.3965 34.4159Z" fill="white"/>
<path d="M35.6892 22.1638C34.6525 24.5044 33.2745 26.5541 31.6848 28.4784C31.1915 29.0638 30.5942 29.1655 30.1483 28.7348C29.6425 28.2317 29.7734 27.7094 30.1838 27.2156C31.5344 25.5866 32.7894 23.8899 33.5049 21.8848C33.8515 20.9386 33.9909 19.903 34.1143 18.9134C34.1959 18.2879 34.3715 17.8328 35.0188 17.783C35.6965 17.7437 36.1174 18.1484 36.0706 18.8205C36.0062 19.9338 35.8249 21.0409 35.6892 22.1638Z" fill="white"/>
<path d="M22.2629 50.7858C21.4723 52.7131 20.5058 54.5103 19.181 56.1139C19.041 56.2716 18.8956 56.4447 18.7403 56.5971C18.2951 57.0443 17.7942 57.1624 17.318 56.7212C16.8265 56.2747 16.9065 55.7518 17.3062 55.2888C19.4286 52.8617 20.6568 50.0199 21.1017 46.8363C21.1879 46.2468 21.5501 45.8912 22.1601 45.9488C22.7851 46.0116 23.1346 46.4259 23.0324 47.0614C22.7976 48.3219 22.5227 49.5512 22.2629 50.7858Z" fill="white"/>
<path d="M49.5265 45.3456C48.0635 49.4479 46.2388 52.3401 43.1821 54.3212C42.7394 54.6145 42.2565 54.8765 41.7548 55.0459C41.2478 55.2307 40.7066 55.0249 40.6035 54.49C40.5434 54.1249 40.7223 53.4644 40.9892 53.3337C45.7599 50.831 47.5174 46.4699 48.3431 41.5088C48.3547 41.4268 48.3662 41.3448 48.393 41.2681C48.505 40.6532 48.8476 40.2562 49.4977 40.345C50.163 40.4391 50.4455 40.8989 50.3121 41.5752C49.9864 43.0966 49.6715 44.5873 49.5265 45.3456Z" fill="white"/>
<path d="M35.7811 54.8924C34.8893 57.4039 33.6544 59.7271 32.0961 61.9033C31.7366 62.3976 31.3047 62.6601 30.7142 62.3512C30.2095 62.0894 30.0949 61.6364 30.2766 61.1146C30.3461 60.9151 30.5067 60.7474 30.6316 60.5844C32.964 57.1635 34.6639 53.5051 35.0036 49.304C35.0425 48.8013 35.0359 48.2827 35.0444 47.7695C35.0555 47.1022 35.3123 46.6582 36.015 46.6448C36.7329 46.6368 36.9744 47.1167 37.0043 47.7638C37.0542 49.9667 36.6978 52.1141 36.0164 54.2171C35.9415 54.432 35.8613 54.6622 35.7811 54.8924Z" fill="white"/>
<path d="M46.6272 28.9854C45.11 32.3633 44.6386 35.9161 45.0307 39.5805C45.1144 40.3668 44.821 40.8669 44.2094 40.912C43.4549 40.9762 43.1572 40.5111 43.0817 39.8481C42.6224 35.9366 43.1383 32.1583 44.6803 28.5137C44.7382 28.3962 44.8114 28.284 44.8747 28.1512C45.1644 27.5638 45.6054 27.3732 46.1967 27.6308C46.7174 27.8466 46.8866 28.3874 46.6272 28.9854Z" fill="white"/>
</svg>
