<svg viewBox="0 0 18 20" fill="currrentColor" xmlns="http://www.w3.org/2000/svg">
    <g clip-path="url(#clip0_303_63)">
        <path d="M17.1826 10.0839V7.27294C17.1826 6.31978 16.5172 5.54461 15.6764 5.46944L13.327 0.909849C13.1093 0.488152 12.7577 0.18675 12.3371 0.0615958C11.9184 -0.0627062 11.4805 0.0025769 11.1058 0.244917L3.05185 5.45478H1.63733C0.734874 5.45478 0.000976562 6.27018 0.000976562 7.27294V18.1819C0.000976562 19.1846 0.734835 20 1.63733 20H15.5462C16.4487 20 17.1826 19.1846 17.1826 18.1819V15.3709C17.6577 15.1826 18.0007 14.6828 18.0007 14.091V11.3638C18.0007 10.772 17.6577 10.2722 17.1826 10.0839ZM11.5177 1.03057C11.703 0.910276 11.9192 0.878316 12.1253 0.939593C12.3343 1.00172 12.5084 1.15176 12.6167 1.36172L13.4139 2.90878C13.0503 3.08835 12.6622 3.1821 12.2735 3.1821C11.3949 3.1821 10.5899 2.73905 10.0495 1.98029L11.5177 1.03057ZM9.3388 2.44C10.0327 3.47945 11.101 4.09121 12.2735 4.09121C12.8043 4.09121 13.3306 3.95216 13.8195 3.6961L14.7257 5.45482H4.67796L9.3388 2.44ZM16.3644 18.1819C16.3644 18.683 15.9972 19.0909 15.5462 19.0909H1.63733C1.18631 19.0909 0.819171 18.683 0.819171 18.1819V7.27294C0.819171 6.77182 1.18631 6.36388 1.63733 6.36388H15.5462C15.9972 6.36388 16.3644 6.77182 16.3644 7.27294V10.0002H13.9099C12.5563 10.0002 11.4553 11.2235 11.4553 12.7274C11.4553 14.2313 12.5563 15.4546 13.9099 15.4546H16.3644V18.1819ZM17.1826 14.091C17.1826 14.3418 16.9992 14.5456 16.7735 14.5456H13.9099C13.0074 14.5456 12.2735 13.7302 12.2735 12.7274C12.2735 11.7247 13.0074 10.9092 13.9099 10.9092H16.7735C16.9992 10.9092 17.1826 11.113 17.1826 11.3638V14.091Z" fill="currentColor"/>
        <path d="M13.909 11.8183C13.458 11.8183 13.0908 12.2262 13.0908 12.7274C13.0908 13.2285 13.458 13.6364 13.909 13.6364C14.36 13.6364 14.7271 13.2285 14.7271 12.7274C14.7272 12.2262 14.36 11.8183 13.909 11.8183Z" fill="currentColor"/>
    </g>
</svg>
