<svg viewBox="0 0 22 22" fill="currentColor" xmlns="http://www.w3.org/2000/svg">
    <path d="M15.8125 12.7188V4.46875C15.8125 3.90014 15.3499 3.4375 14.7812 3.4375H1.03125C0.462645 3.4375 0 3.90014 0 4.46875V12.7188C0 13.2874 0.462645 13.75 1.03125 13.75H14.7812C15.3499 13.75 15.8125 13.2874 15.8125 12.7188ZM0.6875 12.7188V4.46875C0.6875 4.27921 0.841715 4.125 1.03125 4.125H14.7812C14.9708 4.125 15.125 4.27921 15.125 4.46875V12.7188C15.125 12.9083 14.9708 13.0625 14.7812 13.0625H1.03125C0.841715 13.0625 0.6875 12.9083 0.6875 12.7188Z" fill="currentColor"/>
    <path d="M20.9688 8.25H16.8438C16.6539 8.25 16.5 8.40391 16.5 8.59375C16.5 8.78359 16.6539 8.9375 16.8438 8.9375H20.9688C21.1583 8.9375 21.3125 9.09171 21.3125 9.28125V11H16.8438C16.6539 11 16.5 11.1539 16.5 11.3438C16.5 11.5336 16.6539 11.6875 16.8438 11.6875H21.3125V17.5312C21.3125 17.7208 21.1583 17.875 20.9688 17.875H7.21875C7.02921 17.875 6.875 17.7208 6.875 17.5312V14.7812C6.875 14.5914 6.72109 14.4375 6.53125 14.4375C6.34141 14.4375 6.1875 14.5914 6.1875 14.7812V17.5312C6.1875 18.0999 6.65014 18.5625 7.21875 18.5625H20.9688C21.5374 18.5625 22 18.0999 22 17.5312V9.28125C22 8.71264 21.5374 8.25 20.9688 8.25Z" fill="currentColor"/>
    <path d="M7.21875 10.6562H5.5C5.31016 10.6562 5.15625 10.8102 5.15625 11C5.15625 11.1898 5.31016 11.3438 5.5 11.3438H7.21875C7.40859 11.3438 7.5625 11.1898 7.5625 11C7.5625 10.8102 7.40859 10.6562 7.21875 10.6562Z" fill="currentColor"/>
    <path d="M4.125 10.6562H2.40625C2.21641 10.6562 2.0625 10.8102 2.0625 11C2.0625 11.1898 2.21641 11.3438 2.40625 11.3438H4.125C4.31484 11.3438 4.46875 11.1898 4.46875 11C4.46875 10.8102 4.31484 10.6562 4.125 10.6562Z" fill="currentColor"/>
    <path d="M13.4062 10.6562H11.6875C11.4977 10.6562 11.3438 10.8102 11.3438 11C11.3438 11.1898 11.4977 11.3438 11.6875 11.3438H13.4062C13.5961 11.3438 13.75 11.1898 13.75 11C13.75 10.8102 13.5961 10.6562 13.4062 10.6562Z" fill="currentColor"/>
    <path d="M10.3125 10.6562H8.59375C8.40391 10.6562 8.25 10.8102 8.25 11C8.25 11.1898 8.40391 11.3438 8.59375 11.3438H10.3125C10.5023 11.3438 10.6562 11.1898 10.6562 11C10.6562 10.8102 10.5023 10.6562 10.3125 10.6562Z" fill="currentColor"/>
    <path d="M3.78125 5.15625H2.75C2.18135 5.15625 1.71875 5.61889 1.71875 6.1875V6.53125C1.71875 7.09986 2.18135 7.5625 2.75 7.5625H3.78125C4.3499 7.5625 4.8125 7.09986 4.8125 6.53125V6.1875C4.8125 5.61889 4.3499 5.15625 3.78125 5.15625ZM4.125 6.53125C4.125 6.72079 3.97079 6.875 3.78125 6.875H2.75C2.56046 6.875 2.40625 6.72079 2.40625 6.53125V6.1875C2.40625 5.99796 2.56046 5.84375 2.75 5.84375H3.78125C3.97079 5.84375 4.125 5.99796 4.125 6.1875V6.53125Z" fill="currentColor"/>
    <path d="M12.7188 5.15625C12.3084 5.15625 11.9396 5.33719 11.6875 5.62323C11.4354 5.33719 11.0666 5.15625 10.6562 5.15625C9.89807 5.15625 9.28125 5.77307 9.28125 6.53125C9.28125 7.28943 9.89807 7.90625 10.6562 7.90625C11.0666 7.90625 11.4354 7.72531 11.6875 7.43927C11.9396 7.72531 12.3084 7.90625 12.7188 7.90625C13.4769 7.90625 14.0938 7.28943 14.0938 6.53125C14.0938 5.77307 13.4769 5.15625 12.7188 5.15625ZM10.6562 7.21875C10.2772 7.21875 9.96875 6.91032 9.96875 6.53125C9.96875 6.15218 10.2772 5.84375 10.6562 5.84375C11.0353 5.84375 11.3438 6.15218 11.3438 6.53125C11.3438 6.91032 11.0353 7.21875 10.6562 7.21875ZM12.7188 7.21875C12.3397 7.21875 12.0312 6.91032 12.0312 6.53125C12.0312 6.15218 12.3397 5.84375 12.7188 5.84375C13.0978 5.84375 13.4062 6.15218 13.4062 6.53125C13.4062 6.91032 13.0978 7.21875 12.7188 7.21875Z" fill="currentColor"/>
    <path d="M16.8438 10.3125H20.625C20.8148 10.3125 20.9688 10.1586 20.9688 9.96875C20.9688 9.77891 20.8148 9.625 20.625 9.625H16.8438C16.6539 9.625 16.5 9.77891 16.5 9.96875C16.5 10.1586 16.6539 10.3125 16.8438 10.3125Z" fill="currentColor"/>
    <path d="M19.5938 14.4375H13.0625C12.8727 14.4375 12.7188 14.5914 12.7188 14.7812C12.7188 14.9711 12.8727 15.125 13.0625 15.125H19.5938C19.7836 15.125 19.9375 14.9711 19.9375 14.7812C19.9375 14.5914 19.7836 14.4375 19.5938 14.4375Z" fill="currentColor"/>
    <path d="M19.5938 15.8125H15.4688C15.2789 15.8125 15.125 15.9664 15.125 16.1562C15.125 16.3461 15.2789 16.5 15.4688 16.5H19.5938C19.7836 16.5 19.9375 16.3461 19.9375 16.1562C19.9375 15.9664 19.7836 15.8125 19.5938 15.8125Z" fill="currentColor"/>
</svg>
