<svg viewBox="0 0 18 18" fill="none" xmlns="http://www.w3.org/2000/svg">
    <g clip-path="url(#clip0_258_151)">
        <path d="M17.7938 9.49771C17.7936 9.49792 17.7934 9.49816 17.7931 9.49838L14.1192 13.1546C13.8439 13.4285 13.3988 13.4275 13.1248 13.1522C12.8508 12.877 12.8519 12.4318 13.1271 12.1579L15.5938 9.70313H0.703125C0.314789 9.70313 0 9.38834 0 9C0 8.61166 0.314789 8.29688 0.703125 8.29688H15.5938L13.1272 5.84212C12.8519 5.56819 12.8509 5.123 13.1248 4.84776C13.3988 4.57246 13.844 4.57151 14.1192 4.84537L17.7932 8.50163C17.7934 8.50184 17.7936 8.50208 17.7938 8.50229C18.0692 8.77714 18.0683 9.22377 17.7938 9.49771Z" fill="currentColor"/>
    </g>
</svg>
