<svg viewBox="0 0 26 18" fill="currentColor" xmlns="http://www.w3.org/2000/svg">
    <path d="M5.70732 6.49366C8.84538 6.49366 11.3893 9.0376 11.3893 12.1756C11.3893 15.3136 8.84538 17.8576 5.70732 17.8576C2.56926 17.8576 0.0253659 15.3136 0.0253659 12.1756L0 11.3639C0 5.08778 5.08778 0 11.3639 0V3.24683C9.19578 3.24683 7.15738 4.09116 5.62427 5.62427C5.32916 5.91943 5.05983 6.23346 4.81687 6.56331C5.10701 6.51766 5.40435 6.49366 5.70732 6.49366ZM20.318 6.49366C23.4561 6.49366 26 9.0376 26 12.1756C26 15.3136 23.4561 17.8576 20.318 17.8576C17.18 17.8576 14.6361 15.3136 14.6361 12.1756L14.6107 11.3639C14.6107 5.08778 19.6985 0 25.9746 0V3.24683C23.8066 3.24683 21.7681 4.09116 20.235 5.62427C19.9398 5.91943 19.6705 6.23346 19.4276 6.56331C19.7177 6.51766 20.015 6.49366 20.318 6.49366Z" fill="currentColor"/>
</svg>
